<svg xmlns="http://www.w3.org/2000/svg" viewBox="0 0 623.6 481.9">
  <style>
    path { fill: #D59926; }
  </style>
  <g>
    <path d="M445.5,180.6c-17.9-17.9-41.6-27.7-66.9-27.7h-38.9V114c0-25.3-9.8-49.1-27.6-66.8c-17.9-17.9-41.7-27.8-67-27.8c-52.2,0-94.6,42.5-94.6,94.6v0.1c0,10.5,8.5,18.9,18.9,18.9c10.5,0,18.9-8.5,18.9-18.9V114c0-31.3,25.5-56.8,56.8-56.8c15.2,0,29.5,5.9,40.2,16.7c10.7,10.7,16.6,24.9,16.6,40.1v76.7h76.7c15.2,0,29.4,5.9,40.2,16.6c10.7,10.7,16.6,25,16.6,40.1s-5.9,29.4-16.6,40.1c-10.7,10.7-25,16.6-40.2,16.6l-37.8,0c-10.5,0-18.9,8.5-18.9,18.9c0,10.5,8.5,18.9,18.9,18.9l37.8,0c25.3,0,49.1-9.9,67-27.7c17.8-17.9,27.7-41.6,27.7-66.9S463.4,198.5,445.5,180.6z" />
    <path d="M265,304.3l-76.7,0V189.7c0-10.5-8.5-18.9-18.9-18.9c-10.5,0-18.9,8.5-18.9,18.9v133.5c0,5.1,2,9.8,5.5,13.4c3.6,3.6,8.3,5.5,13.4,5.5H265c10.5,0,18.9-8.5,18.9-18.9C283.9,312.7,275.5,304.3,265,304.3z" />
  </g>
</svg>