<?xml version="1.0" encoding="UTF-8" standalone="no"?>
<svg
   xmlns:dc="http://purl.org/dc/elements/1.1/"
   xmlns:cc="http://creativecommons.org/ns#"
   xmlns:rdf="http://www.w3.org/1999/02/22-rdf-syntax-ns#"
   xmlns:svg="http://www.w3.org/2000/svg"
   xmlns="http://www.w3.org/2000/svg"
   xmlns:sodipodi="http://sodipodi.sourceforge.net/DTD/sodipodi-0.dtd"
   xmlns:inkscape="http://www.inkscape.org/namespaces/inkscape"
   version="1.1"
   id="Lag_1"
   x="0px"
   y="0px"
   viewBox="0 0 623.6 481.9"
   style="enable-background:new 0 0 623.6 481.9;"
   xml:space="preserve"
   sodipodi:docname="logo_lovingloyalty_vertikal_invert_rgb.svg"
   inkscape:version="1.0.1 (3bc2e813f5, 2020-09-07)"><metadata
   id="metadata106"><rdf:RDF><cc:Work
       rdf:about=""><dc:format>image/svg+xml</dc:format><dc:type
         rdf:resource="http://purl.org/dc/dcmitype/StillImage" /></cc:Work></rdf:RDF></metadata><defs
   id="defs104" /><sodipodi:namedview
   pagecolor="#ffffff"
   bordercolor="#666666"
   borderopacity="1"
   objecttolerance="10"
   gridtolerance="10"
   guidetolerance="10"
   inkscape:pageopacity="0"
   inkscape:pageshadow="2"
   inkscape:window-width="1920"
   inkscape:window-height="1017"
   id="namedview102"
   showgrid="false"
   inkscape:zoom="1.7126363"
   inkscape:cx="199.40019"
   inkscape:cy="240.95"
   inkscape:window-x="1912"
   inkscape:window-y="-8"
   inkscape:window-maximized="1"
   inkscape:current-layer="Lag_1" />
<style
   type="text/css"
   id="style59">
	.st0{fill:#272A30;}
	.st1{fill:#D59926;}
	.st2{fill:#FFFFFF;}
</style>
<rect
   class="st0"
   width="623.6"
   height="481.9"
   id="rect61"
   style="fill:none" />
<g
   id="g99">
	<g
   id="g79">
		<path
   class="st1"
   d="M26.4,415.3c2.7,0,4.5,1.9,4.5,4.5v33.2h17.8c2.5,0,4.2,1.7,4.2,4.3c0,2.5-1.7,4.2-4.2,4.2H26.1    c-2.4,0-4.2-1.8-4.2-4.3v-37.5C22,417.2,23.8,415.3,26.4,415.3z"
   id="path63" />
		<path
   class="st1"
   d="M81.2,462.5c-13.2,0-23.9-10.8-23.9-24c0-13.3,10.7-24.1,23.9-24.1s23.9,10.8,23.9,24.2    C105.2,451.8,94.4,462.5,81.2,462.5z M81.2,423.4c-7.9,0-14.3,6.8-14.3,15.1c0,8.3,6.4,15.1,14.3,15.1c7.9,0,14.3-6.8,14.3-15    C95.6,430.2,89.2,423.4,81.2,423.4z"
   id="path65" />
		<path
   class="st1"
   d="M152.1,421.8L138.8,456c-1.4,3.8-3.5,5.8-7.1,5.8c-3.5,0-5.6-2-7.1-5.8l-13.2-34.1c-1.5-4,0.5-6.8,4-6.8    c2.5-0.1,4,1.4,5.1,4.5l11.6,31.7l11.5-31.7c1-2.8,2.2-4.5,5-4.5C152,415.1,153.6,417.9,152.1,421.8z"
   id="path67" />
		<path
   class="st1"
   d="M166.2,415.1c2.7,0,4.5,1.9,4.5,4.5v37.7c0,2.6-1.9,4.5-4.5,4.5c-2.6,0-4.5-1.9-4.5-4.5v-37.7    C161.7,417,163.6,415.1,166.2,415.1z"
   id="path69" />
		<path
   class="st1"
   d="M224,419.6v36.6c0,3.5-2,5.6-5,5.6c-3.5,0-5.2-1.9-7.4-4.9l-19-26.1v26.5c0,2.6-1.9,4.5-4.5,4.5    c-2.7,0-4.5-1.9-4.5-4.5v-36.6c0-3.6,2-5.7,5.3-5.7c3.1,0,4.8,1.7,6.8,4.8l19.2,26.8v-27c0-2.6,1.9-4.5,4.5-4.5    C222.1,415.1,224,417,224,419.6z"
   id="path71" />
		<path
   class="st1"
   d="M259.2,453.6c3,0,5.5-0.4,7.8-1.3V442c0-2.7,1.8-4.6,4.5-4.6c2.6,0,4.5,1.9,4.5,4.6v10    c0,6.1-6.6,10.5-17.4,10.5c-13.5,0-23.8-10.8-23.8-24c0-13.3,9.4-24.1,24.8-24.1c8.6,0,16,4,16,8.4c0,2.7-1.9,4-4.2,4    c-3.4,0-5.8-3.4-12.7-3.4c-8.9,0-14.3,6.8-14.3,15.1C244.4,446.8,250.7,453.6,259.2,453.6z"
   id="path73" />
		<path
   class="st1"
   d="M445.5,180.6c-17.9-17.9-41.6-27.7-66.9-27.7h-38.9V114c0-25.3-9.8-49.1-27.6-66.8    c-17.9-17.9-41.7-27.8-67-27.8c-52.2,0-94.6,42.5-94.6,94.6v0.1c0,10.5,8.5,18.9,18.9,18.9c10.5,0,18.9-8.5,18.9-18.9V114    c0-31.3,25.5-56.8,56.8-56.8c15.2,0,29.5,5.9,40.2,16.7c10.7,10.7,16.6,24.9,16.6,40.1v76.7h76.7c15.2,0,29.4,5.9,40.2,16.6    c10.7,10.7,16.6,25,16.6,40.1s-5.9,29.4-16.6,40.1c-10.7,10.7-25,16.6-40.2,16.6l-37.8,0c-10.5,0-18.9,8.5-18.9,18.9    c0,10.5,8.5,18.9,18.9,18.9l37.8,0c25.3,0,49.1-9.9,67-27.7c17.8-17.9,27.7-41.6,27.7-66.9S463.4,198.5,445.5,180.6z"
   id="path75" />
		<path
   class="st1"
   d="M265,304.3l-76.7,0V189.7c0-10.5-8.5-18.9-18.9-18.9c-10.5,0-18.9,8.5-18.9,18.9v133.5c0,5.1,2,9.8,5.5,13.4    c3.6,3.6,8.3,5.5,13.4,5.5H265c10.5,0,18.9-8.5,18.9-18.9C283.9,312.7,275.5,304.3,265,304.3z"
   id="path77" />
	</g>
	<g
   id="g97">
		<path
   class="st2"
   d="M309,415.3c2.7,0,4.5,1.9,4.5,4.5v33.2h17.8c2.5,0,4.2,1.7,4.2,4.3c0,2.4-1.7,4.2-4.2,4.2h-22.6    c-2.4,0-4.2-1.8-4.2-4.3v-37.5C304.5,417.2,306.4,415.3,309,415.3z"
   id="path81" />
		<path
   class="st2"
   d="M363.8,462.5c-13.2,0-23.9-10.8-23.9-24c0-13.3,10.7-24.1,23.9-24.1c13.2,0,23.9,10.8,23.9,24.2    C387.7,451.8,377,462.5,363.8,462.5z M363.8,423.4c-7.9,0-14.3,6.8-14.3,15.1c0,8.3,6.4,15.1,14.3,15.1c7.9,0,14.3-6.8,14.3-15    C378.1,430.2,371.7,423.4,363.8,423.4z"
   id="path83" />
		<path
   class="st2"
   d="M431.8,421.6L417,446.2v11.1c0,2.6-1.9,4.5-4.5,4.5c-2.7,0-4.5-1.9-4.5-4.5v-11.1l-14.4-24.1    c-2.2-3.6-0.1-7.1,3.5-7.1c2.5,0,3.7,1.6,4.7,3.4l10.9,18.4l10.6-18c1.4-2.3,2.7-3.8,5.2-3.8C432.2,415.1,433.7,418.5,431.8,421.6    z"
   id="path85" />
		<path
   class="st2"
   d="M475.2,461.8c-2.6,0.1-4.4-1.4-5.6-4.5l-2.5-6.1h-20.5l-2.5,6.2c-1.1,3-2.4,4.5-5.2,4.4    c-3.3,0-4.9-2.8-3.3-6.6l14.4-34.3c1.7-4.2,3.5-5.8,7.2-5.8c3.7,0,5.5,1.7,7.2,5.8l14.3,34.1C480.3,459,478.6,461.8,475.2,461.8z     M464,443.2l-7.1-17.6l-7.1,17.6H464z"
   id="path87" />
		<path
   class="st2"
   d="M492.8,415.3c2.7,0,4.5,1.9,4.5,4.5v33.2h17.8c2.5,0,4.2,1.7,4.2,4.3c0,2.4-1.7,4.2-4.2,4.2h-22.6    c-2.4,0-4.2-1.8-4.2-4.3v-37.5C488.3,417.2,490.2,415.3,492.8,415.3z"
   id="path89" />
		<path
   class="st2"
   d="M541.7,457.3c0,2.6-1.9,4.5-4.5,4.5c-2.7,0-4.5-1.9-4.5-4.5v-33.5h-9.5c-2.4,0-4.2-1.7-4.2-4.3    c0-2.4,1.7-4.2,4.2-4.2h28.1c2.5,0,4.2,1.7,4.2,4.3c0,2.5-1.7,4.2-4.2,4.2h-9.5V457.3z"
   id="path91" />
		<path
   class="st2"
   d="M600.8,421.6L586,446.2v11.1c0,2.6-1.9,4.5-4.5,4.5c-2.7,0-4.5-1.9-4.5-4.5v-11.1l-14.4-24.1    c-2.2-3.6-0.1-7.1,3.5-7.1c2.5,0,3.7,1.6,4.7,3.4l10.9,18.4l10.6-18c1.4-2.3,2.7-3.8,5.2-3.8C601.2,415.1,602.8,418.5,600.8,421.6    z"
   id="path93" />
		<path
   class="st2"
   d="M340.7,228.6l-76.7,0V114c0-10.5-8.5-18.9-18.9-18.9s-18.9,8.5-18.9,18.9v133.5c0,5.1,2,9.8,5.5,13.4    c3.6,3.6,8.3,5.5,13.4,5.5h95.7c10.5,0,18.9-8.5,18.9-18.9C359.6,237,351.2,228.6,340.7,228.6z"
   id="path95" />
	</g>
</g>
</svg>
